# xmcd
#
# Track frame offsets:
#	150
#	11745
#	28515
#	42638
#	55868
#	69556
#	85531
#	97081
#	109186
#	118756
#
# Disc length: 1726 seconds
#
# Revision: 0
# Processed by: cddbd v1.5.2PL0 Copyright (c) Steve Scherf et al.
# Submitted via: audiograbber 1.83.01
#
DISCID=8306bc0a
DTITLE=Johnny Paycheck - Greatest Hits Vol II
DYEAR=1978
DGENRE=Country
TTITLE0=Take This Job And Shove It
TTITLE1=11 Months And 29 Days
TTITLE2=I'm The Only Hell ( Mama Ever Raised )
TTITLE3=Slide Off Of Your Satin Sheets
TTITLE4=Gone At Last (Vocal accompanist - Charnissa)
TTITLE5=Colorado Cool-Aid
TTITLE6=Me And The I.R.S.
TTITLE7=Georgia In A Jug
TTITLE8=Loving You Beats All I've Ever Seen
TTITLE9=Rhythm Guitar
EXTD=
EXTT0=
EXTT1=
EXTT2=
EXTT3=
EXTT4=
EXTT5=
EXTT6=
EXTT7=
EXTT8=
EXTT9=
PLAYORDER=
